<?xml version="1.0" encoding="UTF-8" standalone="no"?>
<svg width="168px" height="164px" viewBox="0 0 168 164" version="1.1" xmlns="http://www.w3.org/2000/svg" xmlns:xlink="http://www.w3.org/1999/xlink" xmlns:sketch="http://www.bohemiancoding.com/sketch/ns">
    <!-- Generator: Sketch 3.3 (11970) - http://www.bohemiancoding.com/sketch -->
    <title>Group Copy 9</title>
    <desc>Created with Sketch.</desc>
    <defs></defs>
    <g id="Page-1" stroke="none" stroke-width="1" fill="none" fill-rule="evenodd" sketch:type="MSPage">
        <g id="Group-Copy-9" sketch:type="MSLayerGroup" transform="translate(-47.000000, -86.000000)">
            <path d="M53.0553973,166.790123 C53.0553973,166.790123 53.0553973,244 114.801985,244 C176.548572,244 176.548574,166.790123 176.548574,166.790123 L53.0553973,166.790123 Z" id="Path-6" stroke="#FFFFFF" stroke-width="12" sketch:type="MSShapeGroup"></path>
            <path d="M176.079537,180.812454 C178.704776,174.807149 184.64118,170.617284 191.543965,170.617284 C200.879574,170.617284 208.447581,178.280953 208.447581,187.734568 C208.447581,197.188183 200.879574,204.851852 191.543965,204.851852 C182.208355,204.851852 174.640349,197.188183 174.640349,187.734568 C174.640349,187.303453 174.656087,186.876061 174.687015,186.452948 L176.079537,180.812454 Z" id="Oval-2" stroke="#FFFFFF" stroke-width="12" sketch:type="MSShapeGroup"></path>
            <path d="M83.2888918,91.037037 C83.2888918,91.037037 90.4819199,95.4167435 90.4819199,105.245409 C90.4819199,115.074074 83.2888918,119.453781 83.2888918,119.453781" id="Path-23" stroke="#FFFFFF" stroke-width="10" sketch:type="MSShapeGroup"></path>
            <path d="M80.4116805,115.811806 C80.4116805,115.811806 87.6047086,120.191512 87.6047086,130.020178 C87.6047086,139.848843 80.4116805,144.22855 80.4116805,144.22855" id="Path-23-Copy" stroke="#FFFFFF" stroke-width="10" sketch:type="MSShapeGroup" transform="translate(84.008195, 130.020178) scale(-1, 1) translate(-84.008195, -130.020178) "></path>
            <path d="M109.183793,91.037037 C109.183793,91.037037 116.376821,95.4167435 116.376821,105.245409 C116.376821,115.074074 109.183793,119.453781 109.183793,119.453781" id="Path-23-Copy-3" stroke="#FFFFFF" stroke-width="10" sketch:type="MSShapeGroup"></path>
            <path d="M106.306582,115.811806 C106.306582,115.811806 113.49961,120.191512 113.49961,130.020178 C113.49961,139.848843 106.306582,144.22855 106.306582,144.22855" id="Path-23-Copy-2" stroke="#FFFFFF" stroke-width="10" sketch:type="MSShapeGroup" transform="translate(109.903096, 130.020178) scale(-1, 1) translate(-109.903096, -130.020178) "></path>
            <path d="M135.078694,91.037037 C135.078694,91.037037 142.271722,95.4167435 142.271722,105.245409 C142.271722,115.074074 135.078694,119.453781 135.078694,119.453781" id="Path-23-Copy-5" stroke="#FFFFFF" stroke-width="10" sketch:type="MSShapeGroup"></path>
            <path d="M132.201483,115.811806 C132.201483,115.811806 139.394511,120.191512 139.394511,130.020178 C139.394511,139.848843 132.201483,144.22855 132.201483,144.22855" id="Path-23-Copy-4" stroke="#FFFFFF" stroke-width="10" sketch:type="MSShapeGroup" transform="translate(135.797997, 130.020178) scale(-1, 1) translate(-135.797997, -130.020178) "></path>
            <path d="M53.3467742,169 L178.875247,167 L163.004032,219 L123.487903,243 L89.8991935,239 L67.1774194,215 L53.3467742,169 Z" id="Path-40" fill="#FFFFFF" sketch:type="MSShapeGroup"></path>
        </g>
    </g>
</svg>